<?xml version="1.0" encoding="utf-8"?>
<!-- Generator: Adobe Illustrator 27.0.0, SVG Export Plug-In . SVG Version: 6.00 Build 0)  -->
<svg version="1.1" id="레이어_1" xmlns="http://www.w3.org/2000/svg" xmlns:xlink="http://www.w3.org/1999/xlink" x="0px"
	 y="0px" viewBox="0 0 128 128" style="enable-background:new 0 0 128 128;" xml:space="preserve">
<style type="text/css">
	.st0{fill:#FFFFFF;}
	.st1{fill:#FFE226;}
</style>
<g id="_x23_000000ff">
	<path d="M50.2,0.5h6.8c11.6,0.9,20.4,10.9,22.4,21.9c5-5.2,11.8-8.8,19.1-8.8c15.7-0.3,29.1,16.2,25.6,31.5
		c-1.6,7.5-7.1,13.5-13.6,17.2c7.9,4,14.3,11.5,15.1,20.6l0-2.3V87c-1.3,11.4-10,22.1-21.4,24.2c-7.8,1.5-15.9-1.4-21.7-6.6
		c-1.2,7.2-4.7,14.3-10.8,18.5c-3.4,2.6-7.6,3.7-11.7,4.4l2,0h-6.6c-8.7-1-17.3-5.6-21.6-13.4c-4.3-7.4-3.6-16.7-0.2-24.4
		c-6.2,0.9-12.9,0.5-18.5-2.9C7.6,82.9,3.4,75,2.5,67v-4.9c0.7-7.1,4-14,9.7-18.3c5.2-4.1,12.1-5.4,18.6-5
		c-3.4-7.3-4.5-16.1-0.7-23.5C34.2,6.8,43.2,1.6,52.4,0.5L50.2,0.5 M33,17.9C30.7,23.5,31,30,33.5,35.5c0.9,1.7,1.4,4.1,3.6,4.7
		c3.5,1.3,6.9,3.1,9.8,5.5c6-7.3,15.8-11,25.1-9.4c0.9-3.5,2.3-6.9,4.1-9.9c-0.6-7.4-4.1-15-10.5-19C54.6,0.4,38.1,5.9,33,17.9
		 M89,19.8c-6.7,3.6-11.7,10.1-13.4,17.5C85.9,41,93.4,51,93.9,62.1c7.2,0.5,14.7-2,20-6.9c4.8-4.3,7.6-10.8,6.8-17.2
		c-0.9-7.6-5.8-14.4-12.4-18.1C102.3,16.6,94.9,16.6,89,19.8 M62.5,40.3c-5.1,1.2-9.8,4.2-13,8.3c-5.3,6.8-6.6,16.6-2.7,24.4
		c3.1,6.9,9.8,12,17.3,13.1c7,1.3,14.4-1.5,19.3-6.5c5.9-5.9,8.3-15.1,5.9-23.1C86.1,45.3,73.8,37.5,62.5,40.3 M13.3,47.8
		c-8,7-9,19.9-3.8,28.8c5.1,8.9,17,11.9,26.2,8.4c2.9-2.6,5.3-5.8,8.7-7.9c-5-8.6-5.1-19.8,0.2-28.3C36.2,41.3,22.1,40.1,13.3,47.8
		 M93.7,65.8c-1.1,9.9-7.8,18.9-17.1,22.6c2.8,11.5,14.4,21.2,26.6,19.1c10.5-1.9,18.6-12.3,18.5-22.9c-0.1-9.2-7.2-17.2-15.7-19.9
		C101.9,65.1,97.9,66.2,93.7,65.8 M35.2,108.6c4.2,13.6,22.8,19.6,34.3,11.4c6-4.2,9-11.6,9.4-18.8c-2.8-3.4-4.7-7.4-5.9-11.7
		c-9.8,2.3-20.1-1.8-26.4-9.4C37.5,86,31.9,97.9,35.2,108.6z"/>
	<path d="M69.8,53.8c2.2-0.9,3.7,2.6,1.5,3.5C69,58.3,67.6,54.8,69.8,53.8z"/>
	<path d="M57.7,57.6c2.2-0.9,3.7,2.5,1.6,3.5C56.9,62,55.4,58.6,57.7,57.6z"/>
	<path d="M76.5,58.7c1-0.8,2.5,0.1,2.7,1.2c2.4,7-1.7,15.7-9,17.6c-6.4,2-13.6-2.5-15.4-8.9c-0.9-1.7,2.2-3.3,3-1.6
		c1.6,3,3.6,6.3,7.2,7c6.2,1.6,12-4.9,10.9-10.9C76,61.7,74.8,59.6,76.5,58.7z"/>
</g>
<g id="_x23_ffffffff">
	<path class="st0" d="M33,17.9c5-12,21.5-17.5,32.6-10.5c6.4,4,9.9,11.6,10.5,19c-1.9,3.1-3.3,6.4-4.1,9.9
		c-9.3-1.6-19.1,2.1-25.1,9.4c-2.9-2.4-6.3-4.2-9.8-5.5c-2.2-0.6-2.7-3-3.6-4.7C31,30,30.7,23.5,33,17.9z"/>
	<path class="st0" d="M89,19.8c5.9-3.1,13.4-3.2,19.3,0c6.6,3.6,11.5,10.5,12.4,18.1c0.8,6.4-2,13-6.8,17.2c-5.3,5-12.7,7.4-20,6.9
		C93.4,51,85.9,41,75.6,37.3C77.2,29.9,82.3,23.3,89,19.8z"/>
	<path class="st0" d="M13.3,47.8c8.8-7.7,22.9-6.5,31.5,1c-5.3,8.5-5.2,19.7-0.2,28.3c-3.4,2-5.8,5.3-8.7,7.9
		c-9.2,3.5-21.2,0.5-26.2-8.4C4.3,67.6,5.3,54.8,13.3,47.8z"/>
	<path class="st0" d="M93.7,65.8c4.2,0.4,8.2-0.8,12.3-1.1c8.5,2.7,15.6,10.7,15.7,19.9c0.1,10.6-8,21-18.5,22.9
		c-12.2,2.1-23.8-7.6-26.6-19.1C85.9,84.7,92.7,75.7,93.7,65.8z"/>
	<path class="st0" d="M35.2,108.6C31.9,97.9,37.5,86,46.6,80.2c6.3,7.6,16.7,11.6,26.4,9.4c1.2,4.2,3.1,8.2,5.9,11.7
		c-0.4,7.2-3.5,14.5-9.4,18.8C58,128.2,39.4,122.2,35.2,108.6z"/>
</g>
<g id="_x23_ffe226ff">
	<path class="st1" d="M62.5,40.3c11.4-2.7,23.6,5,26.7,16.2c2.4,8,0,17.2-5.9,23.1c-5,5-12.3,7.7-19.3,6.5
		C56.5,85,49.8,79.9,46.7,73c-3.8-7.8-2.5-17.6,2.7-24.4C52.7,44.4,57.4,41.5,62.5,40.3 M69.8,53.8c-2.2,0.9-0.8,4.5,1.5,3.5
		C73.4,56.4,72,52.9,69.8,53.8 M57.7,57.6c-2.2,1-0.7,4.5,1.6,3.5C61.3,60,59.9,56.7,57.7,57.6 M76.5,58.7c-1.6,0.9-0.5,3-0.5,4.5
		c1.1,6-4.7,12.5-10.9,10.9c-3.7-0.7-5.6-4-7.2-7c-0.8-1.7-3.9-0.1-3,1.6c1.7,6.4,8.9,10.8,15.4,8.9c7.3-1.9,11.4-10.6,9-17.6
		C79,58.7,77.4,57.9,76.5,58.7z"/>
</g>
</svg>
